# xmcd
# 
# Track frame offsets:
#     150
#     17552
#     36289
#     50671
#     67606
#     86894
#     103294
#     116788
#     138016
#     153459
# 
# Disc length: 2315
# 
# Revision: 1
# Processed by: cddbd v1.5.2PL0 Copyright (c) Steve Scherf et al.
# Submitted via: BonkEnc v1.0.15
# 
DISCID=8209090a
DTITLE=OLIVER DRAGOJEVIĆ - Karoca
DYEAR=1982
DGENRE=Zabavni
TTITLE0=Karoca
TTITLE1=Antonio
TTITLE2=Laku noć Luigi, laku noć Bepina
TTITLE3=Ćer od stareg kalafata
TTITLE4=Ništa nova, ništa nova
TTITLE5=Mama
TTITLE6=Gospojice, lipo dite
TTITLE7=Štorija
TTITLE8=Bi je pisnik
TTITLE9=Na kraju vijađa
EXTD=
EXTT0=
EXTT1=
EXTT2=
EXTT3=
EXTT4=
EXTT5=
EXTT6=
EXTT7=
EXTT8=
EXTT9=
PLAYORDER=
